# xmcd
#
# Track frame offsets:
#	150
#	15035
#	25388
#	35355
#	47407
#	62203
#	75285
#	86322
#	98861
#	108818
#	121001
#	132024
#	141721
#	151615
#	165685
#	176185
#	185513
#	199508
#	210893
#	224153
#	235335
#	248145
#	260575
#	274807
#	288974
#
# Disc length: 3994 seconds
#
# Revision: 0
# Processed by: cddbd v1.5.2PL0 Copyright (c) Steve Scherf et al.
# Submitted via: audiograbber 1.83.01
#
DISCID=4e0f9819
DTITLE=Don Gibson - Singer, Songwriter 1966-1969 CD 2
DYEAR=1993
DGENRE=Country
TTITLE0=You've till Got A Place In My Heart ( LSP 3974 )  1968
TTITLE1=Everlovin' Never Changing Mind ( 47-9663, LSP 3974 )  1968
TTITLE2=Maiden's Prayer ( LSP 3974 )  1968
TTITLE3=A Thing Called Sadness ( LSP 3974 )  1968
TTITLE4=What Now My Love ( LSP 3974 )  1968
TTITLE5=Half A Man ( LSP 4053 )  1968
TTITLE6=Thoughts ( 47-9663 )  1968
TTITLE7=I Walk Alone ( LSP 4053 )  1968
TTITLE8=I'm So Lonesome I Could Cry ( LSP 4053 )  1968
TTITLE9=Someday You'll Call My Name ( LSP 4053 )  1968
TTITLE10=She's Looking Good ( LSP 4053 )  1968
TTITLE11=Times Were Good ( ACL1 0328 )  1968
TTITLE12=Don't Rob Another Man's Castle ( LSP 4053 )  1968
TTITLE13=Someday ( You'll want Me To Want You ) ( LSP 4053 )  1968
TTITLE14=If My Heart Had Windows ( 47-9906, ACL10328 )  1968
TTITLE15=Ever Changing Mind ( '68 uv )  2004
TTITLE16=You Can't Pick A Rose In December ( LSP 4053 )  1968
TTITLE17=Til I Can't Take It Anymore ( and Dotti West ) ( 47-9867, LSP 4131 )  19
TTITLE17=69
TTITLE18=Let's Wait A Little Longer ( and Dotti West ) ( LSP 4131 )  1969
TTITLE19=Lovin' Season ( and Dotti West ) ( LSP 4131 )  1969
TTITLE20=How's The World Treating You ( and Dotti West ) ( 74-0178, LSP 4131 )  1
TTITLE20=969
TTITLE21=Rings Of Gold ( and Dotti West ) ( 47-9715, LSP 4131 )  1969
TTITLE22=Sweet Memories ( and Dotti West ) ( 74-0178, LSP 4131 )  1969
TTITLE23=I Love You Because ( and Dotti West ) ( 47-9867, LSP 4131 )  1969
TTITLE24=When I Stop Dreaming ( and Dotti West ) ( LSP 4131 )  1969
EXTD=
EXTT0=
EXTT1=
EXTT2=
EXTT3=
EXTT4=
EXTT5=
EXTT6=
EXTT7=
EXTT8=
EXTT9=
EXTT10=
EXTT11=
EXTT12=
EXTT13=
EXTT14=
EXTT15=
EXTT16=
EXTT17=
EXTT18=
EXTT19=
EXTT20=
EXTT21=
EXTT22=
EXTT23=
EXTT24=
PLAYORDER=
